<?xml version="1.0" encoding="UTF-8"?>
<svg id="Calque_1" xmlns="http://www.w3.org/2000/svg" version="1.1" viewBox="0 0 1920 1080">
  <!-- Generator: Adobe Illustrator 29.1.0, SVG Export Plug-In . SVG Version: 2.1.0 Build 142)  -->
  <path d="M1257.68,917.91l-1.68,1.09.1-2.13c.03-.68.2-1.34.5-1.96,31.13-63.41,172.72-377.2,37.64-582.59-61.14-92.96-174.46-158.51-319.11-184.59-254.16-45.83-546.76,35.44-802.75,222.98l-1.77-2.42c68.47-50.16,140.3-93.24,213.49-128.03,69.07-32.84,139.99-58.62,210.78-76.62,131.74-33.5,263.41-40.02,380.79-18.86,72.09,13,136.67,35.82,191.93,67.83,55.21,31.98,98.66,71.7,129.16,118.07,135.74,206.4-5.71,520.82-37.29,585.24-.4.82-1.01,1.51-1.78,2Z"/>
</svg>